<?xml version="1.0" encoding="UTF-8" standalone="no"?><svg xmlns="http://www.w3.org/2000/svg" xmlns:xlink="http://www.w3.org/1999/xlink" contentScriptType="application/ecmascript" contentStyleType="text/css" height="263px" preserveAspectRatio="none" style="width:412px;height:263px;" version="1.1" viewBox="0 0 412 263" width="412px" zoomAndPan="magnify"><defs><filter height="300%" id="fi7me4gpewut" width="300%" x="-1" y="-1"><feGaussianBlur result="blurOut" stdDeviation="2.0"/><feColorMatrix in="blurOut" result="blurOut2" type="matrix" values="0 0 0 0 0 0 0 0 0 0 0 0 0 0 0 0 0 0 .4 0"/><feOffset dx="4.0" dy="4.0" in="blurOut2" result="blurOut3"/><feBlend in="SourceGraphic" in2="blurOut3" mode="normal"/></filter></defs><g><rect fill="#FEFECE" filter="url(#fi7me4gpewut)" height="36.3441" style="stroke: #A80036; stroke-width: 1.5;" width="148" x="137" y="8"/><text fill="#000000" font-family="sans-serif" font-size="12" lengthAdjust="spacingAndGlyphs" textLength="134" x="144" y="22.8281">Root-ApplicationContext</text><line style="stroke: #A80036; stroke-width: 1.5;" x1="138" x2="284" y1="28.3441" y2="28.3441"/><path d="M320.5,12 L320.5,22 L285.2,26 L320.5,30 L320.5,39.706 A0,0 0 0 0 320.5,39.706 L391.5,39.706 A0,0 0 0 0 391.5,39.706 L391.5,22 L381.5,12 L320.5,12 A0,0 0 0 0 320.5,12 " fill="#FBFB77" filter="url(#fi7me4gpewut)" style="stroke: #A80036; stroke-width: 1.0;"/><path d="M381.5,12 L381.5,22 L391.5,22 L381.5,12 " fill="#FBFB77" style="stroke: #A80036; stroke-width: 1.0;"/><text fill="#000000" font-family="sans-serif" font-size="13" lengthAdjust="spacingAndGlyphs" textLength="50" x="326.5" y="30.897">optional</text><rect fill="#FEFECE" filter="url(#fi7me4gpewut)" height="41.9641" style="stroke: #A80036; stroke-width: 1.5;" width="173" x="20.5" y="104"/><text fill="#000000" font-family="sans-serif" font-size="12" lengthAdjust="spacingAndGlyphs" textLength="159" x="27.5" y="118.8281">Servlet-A ApplicationContext</text><line style="stroke: #A80036; stroke-width: 1.5;" x1="21.5" x2="192.5" y1="124.3441" y2="124.3441"/><text fill="#000000" font-family="sans-serif" font-size="10" lengthAdjust="spacingAndGlyphs" textLength="154" x="26.5" y="139.0341">parent: Root-ApplicationContext</text><path d="M6,206 L6,251.412 A0,0 0 0 0 6,251.412 L208,251.412 A0,0 0 0 0 208,251.412 L208,216 L198,206 L111,206 L107,146.05 L103,206 L6,206 A0,0 0 0 0 6,206 " fill="#FBFB77" filter="url(#fi7me4gpewut)" style="stroke: #A80036; stroke-width: 1.0;"/><path d="M198,206 L198,216 L208,216 L198,206 " fill="#FBFB77" style="stroke: #A80036; stroke-width: 1.0;"/><text fill="#000000" font-family="sans-serif" font-size="13" lengthAdjust="spacingAndGlyphs" textLength="11" x="12" y="224.897">Je</text><text fill="#000000" font-family="sans-serif" font-size="13" font-style="italic" lengthAdjust="spacingAndGlyphs" textLength="99" x="26" y="224.897">DispatcherServlet</text><text fill="#000000" font-family="sans-serif" font-size="13" lengthAdjust="spacingAndGlyphs" textLength="181" x="12" y="242.603">ein Servlet-ApplicationContext</text><rect fill="#FEFECE" filter="url(#fi7me4gpewut)" height="41.9641" style="stroke: #A80036; stroke-width: 1.5;" width="173" x="228.5" y="104"/><text fill="#000000" font-family="sans-serif" font-size="12" lengthAdjust="spacingAndGlyphs" textLength="159" x="235.5" y="118.8281">Servlet-B ApplicationContext</text><line style="stroke: #A80036; stroke-width: 1.5;" x1="229.5" x2="400.5" y1="124.3441" y2="124.3441"/><text fill="#000000" font-family="sans-serif" font-size="10" lengthAdjust="spacingAndGlyphs" textLength="154" x="234.5" y="139.0341">parent: Root-ApplicationContext</text><!--MD5=[0dfefca0c4e0d417b56e98d9d0e3a910]
reverse link root to s1--><path d="M177.56,58.19 C161.53,73.14 142.8,90.61 128.67,103.79 " fill="none" id="root&lt;-s1" style="stroke: #225C4D; stroke-width: 1.0;"/><polygon fill="none" points="173.01,52.86,192.41,44.34,182.56,63.1,173.01,52.86" style="stroke: #225C4D; stroke-width: 1.0;"/><!--MD5=[cfe5c08ac4953f4b961b8733052e0127]
reverse link root to s2--><path d="M244.44,58.19 C260.47,73.14 279.2,90.61 293.33,103.79 " fill="none" id="root&lt;-s2" style="stroke: #225C4D; stroke-width: 1.0;"/><polygon fill="none" points="239.44,63.1,229.59,44.34,248.99,52.86,239.44,63.1" style="stroke: #225C4D; stroke-width: 1.0;"/><!--MD5=[cadfda29ff8f0182bdb88e42b6d043b9]
@startuml
skinparam class {
 BackgroundColor #DDEEE8
 BorderColor #225C4D
 ArrowColor #225C4D
 }
object "Root-ApplicationContext" as root
note right: optional

object "Servlet-A ApplicationContext" as s1 {
    parent: Root-ApplicationContext
}
note bottom
  Je <i>DispatcherServlet</i>
  ein Servlet-ApplicationContext
end note

object "Servlet-B ApplicationContext" as s2 {
    parent: Root-ApplicationContext
}

root <|- - s1
root <|- - s2
@enduml

PlantUML version 1.2019.12(Sun Nov 03 11:24:54 CET 2019)
(APACHE source distribution)
Java Runtime: OpenJDK Runtime Environment
JVM: OpenJDK 64-Bit Server VM
Java Version: 17.0.9+9-Debian-1deb12u1
Operating System: Linux
Default Encoding: UTF-8
Language: de
Country: DE
--></g></svg>