<?xml version="1.0" encoding="UTF-8" standalone="no"?><svg xmlns="http://www.w3.org/2000/svg" xmlns:xlink="http://www.w3.org/1999/xlink" contentScriptType="application/ecmascript" contentStyleType="text/css" height="175px" preserveAspectRatio="none" style="width:322px;height:175px;" version="1.1" viewBox="0 0 322 175" width="322px" zoomAndPan="magnify"><defs><filter height="300%" id="f1fetghx3zdc2g" width="300%" x="-1" y="-1"><feGaussianBlur result="blurOut" stdDeviation="2.0"/><feColorMatrix in="blurOut" result="blurOut2" type="matrix" values="0 0 0 0 0 0 0 0 0 0 0 0 0 0 0 0 0 0 .4 0"/><feOffset dx="4.0" dy="4.0" in="blurOut2" result="blurOut3"/><feBlend in="SourceGraphic" in2="blurOut3" mode="normal"/></filter></defs><g><!--MD5=[219898b7f8d5c969bf80bd91dd512ee8]
class MyService--><rect fill="#DDEEE8" filter="url(#f1fetghx3zdc2g)" height="48" id="MyService" style="stroke: #225C4D; stroke-width: 1.5;" width="90" x="6" y="8"/><ellipse cx="21" cy="24" fill="#ADD1B2" rx="11" ry="11" style="stroke: #225C4D; stroke-width: 1.0;"/><path d="M20.4688,30.9219 Q18.7188,30.9219 17.5781,30.1875 Q16.4531,29.4375 15.8906,28.0938 Q15.3438,26.7344 15.3438,24.9375 Q15.3438,22.9063 16,21.4531 Q16.6563,20 17.9375,19.2188 Q19.2188,18.4375 21.0938,18.4375 Q21.9844,18.4375 22.6563,18.625 Q23.3281,18.7969 24.0156,19.1406 L23.2031,21.1563 Q22.5781,20.8438 22.0313,20.7188 Q21.5,20.5938 21.0156,20.5938 Q19.8438,20.5938 19.1406,21.125 Q18.4375,21.6563 18.1406,22.6094 Q17.8438,23.5625 17.8438,24.8281 Q17.8438,26.8438 18.5625,27.8125 Q19.2813,28.7656 20.875,28.7656 Q21.4688,28.7656 22.0938,28.6094 Q22.7188,28.4531 23.5469,28.0781 L23.5469,30.2969 Q22.8125,30.6094 22.0156,30.7656 Q21.2344,30.9219 20.4688,30.9219 Z "/><text fill="#000000" font-family="sans-serif" font-size="12" lengthAdjust="spacingAndGlyphs" textLength="58" x="35" y="28.656">MyService</text><line style="stroke: #225C4D; stroke-width: 1.5;" x1="7" x2="95" y1="40" y2="40"/><line style="stroke: #225C4D; stroke-width: 1.5;" x1="7" x2="95" y1="48" y2="48"/><!--MD5=[94d3e4af53c3d62d16f94c1107482528]
class UsedService--><rect fill="#DDEEE8" filter="url(#f1fetghx3zdc2g)" height="48" id="UsedService" style="stroke: #225C4D; stroke-width: 1.5;" width="95" x="131.5" y="8"/><ellipse cx="146.5" cy="24" fill="#B4A7E5" rx="11" ry="11" style="stroke: #225C4D; stroke-width: 1.0;"/><path d="M142.5313,30.5 L142.5313,28.7969 L144.8906,28.5313 L144.8906,20.3281 L142.5313,20.0625 L142.5313,18.3594 L149.6719,18.3594 L149.6719,20.0625 L147.25,20.3281 L147.25,28.5313 L149.6719,28.7969 L149.6719,30.5 L142.5313,30.5 Z "/><text fill="#000000" font-family="sans-serif" font-size="12" font-style="italic" lengthAdjust="spacingAndGlyphs" textLength="63" x="160.5" y="28.656">UsedService</text><line style="stroke: #225C4D; stroke-width: 1.5;" x1="132.5" x2="225.5" y1="40" y2="40"/><line style="stroke: #225C4D; stroke-width: 1.5;" x1="132.5" x2="225.5" y1="48" y2="48"/><!--MD5=[d0eeb360c93230f40a372f310f64b160]
class ImplA--><rect fill="#DDEEE8" filter="url(#f1fetghx3zdc2g)" height="48" id="ImplA" style="stroke: #225C4D; stroke-width: 1.5;" width="65" x="46.5" y="116"/><ellipse cx="61.5" cy="132" fill="#ADD1B2" rx="11" ry="11" style="stroke: #225C4D; stroke-width: 1.0;"/><path d="M60.9688,138.9219 Q59.2188,138.9219 58.0781,138.1875 Q56.9531,137.4375 56.3906,136.0938 Q55.8438,134.7344 55.8438,132.9375 Q55.8438,130.9063 56.5,129.4531 Q57.1563,128 58.4375,127.2188 Q59.7188,126.4375 61.5938,126.4375 Q62.4844,126.4375 63.1563,126.625 Q63.8281,126.7969 64.5156,127.1406 L63.7031,129.1563 Q63.0781,128.8438 62.5313,128.7188 Q62,128.5938 61.5156,128.5938 Q60.3438,128.5938 59.6406,129.125 Q58.9375,129.6563 58.6406,130.6094 Q58.3438,131.5625 58.3438,132.8281 Q58.3438,134.8438 59.0625,135.8125 Q59.7813,136.7656 61.375,136.7656 Q61.9688,136.7656 62.5938,136.6094 Q63.2188,136.4531 64.0469,136.0781 L64.0469,138.2969 Q63.3125,138.6094 62.5156,138.7656 Q61.7344,138.9219 60.9688,138.9219 Z "/><text fill="#000000" font-family="sans-serif" font-size="12" lengthAdjust="spacingAndGlyphs" textLength="33" x="75.5" y="136.656">ImplA</text><line style="stroke: #225C4D; stroke-width: 1.5;" x1="47.5" x2="110.5" y1="148" y2="148"/><line style="stroke: #225C4D; stroke-width: 1.5;" x1="47.5" x2="110.5" y1="156" y2="156"/><!--MD5=[44dea7237d6d6925a114feadf3890b9b]
class ImplB--><rect fill="#DDEEE8" filter="url(#f1fetghx3zdc2g)" height="48" id="ImplB" style="stroke: #225C4D; stroke-width: 1.5;" width="65" x="146.5" y="116"/><ellipse cx="161.5" cy="132" fill="#ADD1B2" rx="11" ry="11" style="stroke: #225C4D; stroke-width: 1.0;"/><path d="M160.9688,138.9219 Q159.2188,138.9219 158.0781,138.1875 Q156.9531,137.4375 156.3906,136.0938 Q155.8438,134.7344 155.8438,132.9375 Q155.8438,130.9063 156.5,129.4531 Q157.1563,128 158.4375,127.2188 Q159.7188,126.4375 161.5938,126.4375 Q162.4844,126.4375 163.1563,126.625 Q163.8281,126.7969 164.5156,127.1406 L163.7031,129.1563 Q163.0781,128.8438 162.5313,128.7188 Q162,128.5938 161.5156,128.5938 Q160.3438,128.5938 159.6406,129.125 Q158.9375,129.6563 158.6406,130.6094 Q158.3438,131.5625 158.3438,132.8281 Q158.3438,134.8438 159.0625,135.8125 Q159.7813,136.7656 161.375,136.7656 Q161.9688,136.7656 162.5938,136.6094 Q163.2188,136.4531 164.0469,136.0781 L164.0469,138.2969 Q163.3125,138.6094 162.5156,138.7656 Q161.7344,138.9219 160.9688,138.9219 Z "/><text fill="#000000" font-family="sans-serif" font-size="12" lengthAdjust="spacingAndGlyphs" textLength="33" x="175.5" y="136.656">ImplB</text><line style="stroke: #225C4D; stroke-width: 1.5;" x1="147.5" x2="210.5" y1="148" y2="148"/><line style="stroke: #225C4D; stroke-width: 1.5;" x1="147.5" x2="210.5" y1="156" y2="156"/><!--MD5=[f262a2db165ccd1a142b7e752dcdfe66]
class ImplC--><rect fill="#DDEEE8" filter="url(#f1fetghx3zdc2g)" height="48" id="ImplC" style="stroke: #225C4D; stroke-width: 1.5;" width="65" x="246.5" y="116"/><ellipse cx="261.5" cy="132" fill="#ADD1B2" rx="11" ry="11" style="stroke: #225C4D; stroke-width: 1.0;"/><path d="M260.9688,138.9219 Q259.2188,138.9219 258.0781,138.1875 Q256.9531,137.4375 256.3906,136.0938 Q255.8438,134.7344 255.8438,132.9375 Q255.8438,130.9063 256.5,129.4531 Q257.1563,128 258.4375,127.2188 Q259.7188,126.4375 261.5938,126.4375 Q262.4844,126.4375 263.1563,126.625 Q263.8281,126.7969 264.5156,127.1406 L263.7031,129.1563 Q263.0781,128.8438 262.5313,128.7188 Q262,128.5938 261.5156,128.5938 Q260.3438,128.5938 259.6406,129.125 Q258.9375,129.6563 258.6406,130.6094 Q258.3438,131.5625 258.3438,132.8281 Q258.3438,134.8438 259.0625,135.8125 Q259.7813,136.7656 261.375,136.7656 Q261.9688,136.7656 262.5938,136.6094 Q263.2188,136.4531 264.0469,136.0781 L264.0469,138.2969 Q263.3125,138.6094 262.5156,138.7656 Q261.7344,138.9219 260.9688,138.9219 Z "/><text fill="#000000" font-family="sans-serif" font-size="12" lengthAdjust="spacingAndGlyphs" textLength="33" x="275.5" y="136.656">ImplC</text><line style="stroke: #225C4D; stroke-width: 1.5;" x1="247.5" x2="310.5" y1="148" y2="148"/><line style="stroke: #225C4D; stroke-width: 1.5;" x1="247.5" x2="310.5" y1="156" y2="156"/><!--MD5=[6583a34027111f435741cff19d4cf768]
link MyService to UsedService--><path d="M96.5,32 C106.38,32 116.26,32 126.14,32 " fill="none" id="MyService-&gt;UsedService" style="stroke: #225C4D; stroke-width: 1.0;"/><polygon fill="#225C4D" points="131.3,32,122.3,28,126.3,32,122.3,36,131.3,32" style="stroke: #225C4D; stroke-width: 1.0;"/><!--MD5=[59d3cbf50626bbf52fa09cfa8a5451c1]
reverse link UsedService to ImplA--><path d="M143.38,70.75 C129.24,85.74 113.42,102.51 101,115.68 " fill="none" id="UsedService&lt;-ImplA" style="stroke: #225C4D; stroke-width: 1.0;"/><polygon fill="none" points="138.49,65.74,157.3,56,148.67,75.35,138.49,65.74" style="stroke: #225C4D; stroke-width: 1.0;"/><!--MD5=[f387df898f764d4ef8af149d7cdf85e8]
reverse link UsedService to ImplB--><path d="M179,76.02 C179,89.58 179,104.04 179,115.68 " fill="none" id="UsedService&lt;-ImplB" style="stroke: #225C4D; stroke-width: 1.0;"/><polygon fill="none" points="172,76,179,56,186,76,172,76" style="stroke: #225C4D; stroke-width: 1.0;"/><!--MD5=[afb0d59e9e26e05da2ec94219dc57722]
reverse link UsedService to ImplC--><path d="M214.62,70.75 C228.76,85.74 244.58,102.51 257,115.68 " fill="none" id="UsedService&lt;-ImplC" style="stroke: #225C4D; stroke-width: 1.0;"/><polygon fill="none" points="209.33,75.35,200.7,56,219.51,65.74,209.33,75.35" style="stroke: #225C4D; stroke-width: 1.0;"/><!--MD5=[a0d73aae8fdf954e8a4a2213b48ca02c]
@startuml
skinparam class {
 BackgroundColor #DDEEE8
 BorderColor #225C4D
 ArrowColor #225C4D
 }
class MyService
interface UsedService

MyService -> UsedService
UsedService <|- - ImplA
UsedService <|- - ImplB
UsedService <|- - ImplC
@enduml

PlantUML version 1.2019.12(Sun Nov 03 11:24:54 CET 2019)
(APACHE source distribution)
Java Runtime: OpenJDK Runtime Environment
JVM: OpenJDK 64-Bit Server VM
Java Version: 17.0.9+9-Debian-1deb12u1
Operating System: Linux
Default Encoding: UTF-8
Language: de
Country: DE
--></g></svg>