<?xml version="1.0" encoding="UTF-8" standalone="no"?><svg xmlns="http://www.w3.org/2000/svg" xmlns:xlink="http://www.w3.org/1999/xlink" contentScriptType="application/ecmascript" contentStyleType="text/css" height="363px" preserveAspectRatio="none" style="width:484px;height:363px;" version="1.1" viewBox="0 0 484 363" width="484px" zoomAndPan="magnify"><defs><filter height="300%" id="ff9wfjbm7qv4j" width="300%" x="-1" y="-1"><feGaussianBlur result="blurOut" stdDeviation="2.0"/><feColorMatrix in="blurOut" result="blurOut2" type="matrix" values="0 0 0 0 0 0 0 0 0 0 0 0 0 0 0 0 0 0 .4 0"/><feOffset dx="4.0" dy="4.0" in="blurOut2" result="blurOut3"/><feBlend in="SourceGraphic" in2="blurOut3" mode="normal"/></filter></defs><g><rect fill="#FFFFFF" filter="url(#ff9wfjbm7qv4j)" height="181.8241" style="stroke: #A80036; stroke-width: 1.0;" width="10" x="48.5" y="106.4799"/><rect fill="#D3D3D3" filter="url(#ff9wfjbm7qv4j)" height="90.412" style="stroke: #A80036; stroke-width: 1.0;" width="10" x="53.5" y="169.892"/><rect fill="#FFFFFF" filter="url(#ff9wfjbm7qv4j)" height="227.5301" style="stroke: #A80036; stroke-width: 1.0;" width="10" x="216.5" y="74.7739"/><rect fill="#FFFFFF" filter="url(#ff9wfjbm7qv4j)" height="136.118" style="stroke: #A80036; stroke-width: 1.0;" width="10" x="286.5" y="138.186"/><rect fill="#FFFFFF" filter="url(#ff9wfjbm7qv4j)" height="58.706" style="stroke: #A80036; stroke-width: 1.0;" width="10" x="358.5" y="201.598"/><line style="stroke: #A80036; stroke-width: 1.0; stroke-dasharray: 5.0,5.0;" x1="53" x2="53" y1="41.0679" y2="320.304"/><line style="stroke: #A80036; stroke-width: 1.0; stroke-dasharray: 5.0,5.0;" x1="221.5" x2="221.5" y1="41.0679" y2="320.304"/><line style="stroke: #A80036; stroke-width: 1.0; stroke-dasharray: 5.0,5.0;" x1="291.5" x2="291.5" y1="41.0679" y2="320.304"/><line style="stroke: #A80036; stroke-width: 1.0; stroke-dasharray: 5.0,5.0;" x1="363.5" x2="363.5" y1="41.0679" y2="320.304"/><rect fill="#FEFECE" filter="url(#ff9wfjbm7qv4j)" height="33.0679" style="stroke: #A80036; stroke-width: 1.5;" width="87" x="8" y="3"/><text fill="#000000" font-family="sans-serif" font-size="14" lengthAdjust="spacingAndGlyphs" textLength="73" x="15" y="24.9659">FilterChain</text><rect fill="#FEFECE" filter="url(#ff9wfjbm7qv4j)" height="33.0679" style="stroke: #A80036; stroke-width: 1.5;" width="87" x="8" y="319.304"/><text fill="#000000" font-family="sans-serif" font-size="14" lengthAdjust="spacingAndGlyphs" textLength="73" x="15" y="341.27">FilterChain</text><rect fill="#FEFECE" filter="url(#ff9wfjbm7qv4j)" height="33.0679" style="stroke: #A80036; stroke-width: 1.5;" width="56" x="191.5" y="3"/><text fill="#000000" font-family="sans-serif" font-size="14" lengthAdjust="spacingAndGlyphs" textLength="42" x="198.5" y="24.9659">Filter1</text><rect fill="#FEFECE" filter="url(#ff9wfjbm7qv4j)" height="33.0679" style="stroke: #A80036; stroke-width: 1.5;" width="56" x="191.5" y="319.304"/><text fill="#000000" font-family="sans-serif" font-size="14" lengthAdjust="spacingAndGlyphs" textLength="42" x="198.5" y="341.27">Filter1</text><rect fill="#FEFECE" filter="url(#ff9wfjbm7qv4j)" height="33.0679" style="stroke: #A80036; stroke-width: 1.5;" width="56" x="261.5" y="3"/><text fill="#000000" font-family="sans-serif" font-size="14" lengthAdjust="spacingAndGlyphs" textLength="42" x="268.5" y="24.9659">Filter2</text><rect fill="#FEFECE" filter="url(#ff9wfjbm7qv4j)" height="33.0679" style="stroke: #A80036; stroke-width: 1.5;" width="56" x="261.5" y="319.304"/><text fill="#000000" font-family="sans-serif" font-size="14" lengthAdjust="spacingAndGlyphs" textLength="42" x="268.5" y="341.27">Filter2</text><rect fill="#FEFECE" filter="url(#ff9wfjbm7qv4j)" height="33.0679" style="stroke: #A80036; stroke-width: 1.5;" width="60" x="331.5" y="3"/><text fill="#000000" font-family="sans-serif" font-size="14" lengthAdjust="spacingAndGlyphs" textLength="46" x="338.5" y="24.9659">Servlet</text><rect fill="#FEFECE" filter="url(#ff9wfjbm7qv4j)" height="33.0679" style="stroke: #A80036; stroke-width: 1.5;" width="60" x="331.5" y="319.304"/><text fill="#000000" font-family="sans-serif" font-size="14" lengthAdjust="spacingAndGlyphs" textLength="46" x="338.5" y="341.27">Servlet</text><rect fill="#FFFFFF" filter="url(#ff9wfjbm7qv4j)" height="181.8241" style="stroke: #A80036; stroke-width: 1.0;" width="10" x="48.5" y="106.4799"/><rect fill="#D3D3D3" filter="url(#ff9wfjbm7qv4j)" height="90.412" style="stroke: #A80036; stroke-width: 1.0;" width="10" x="53.5" y="169.892"/><rect fill="#FFFFFF" filter="url(#ff9wfjbm7qv4j)" height="227.5301" style="stroke: #A80036; stroke-width: 1.0;" width="10" x="216.5" y="74.7739"/><rect fill="#FFFFFF" filter="url(#ff9wfjbm7qv4j)" height="136.118" style="stroke: #A80036; stroke-width: 1.0;" width="10" x="286.5" y="138.186"/><rect fill="#FFFFFF" filter="url(#ff9wfjbm7qv4j)" height="58.706" style="stroke: #A80036; stroke-width: 1.0;" width="10" x="358.5" y="201.598"/><polygon fill="#225C4D" points="204.5,70.7739,214.5,74.7739,204.5,78.7739,208.5,74.7739" style="stroke: #225C4D; stroke-width: 1.0;"/><line style="stroke: #225C4D; stroke-width: 1.0;" x1="53.5" x2="210.5" y1="74.7739" y2="74.7739"/><text fill="#000000" font-family="sans-serif" font-size="13" lengthAdjust="spacingAndGlyphs" textLength="144" x="60.5" y="68.9649">doFilter(req, resp, chain)</text><polygon fill="#225C4D" points="69.5,102.4799,59.5,106.4799,69.5,110.4799,65.5,106.4799" style="stroke: #225C4D; stroke-width: 1.0;"/><line style="stroke: #225C4D; stroke-width: 1.0;" x1="63.5" x2="215.5" y1="106.4799" y2="106.4799"/><text fill="#000000" font-family="sans-serif" font-size="13" lengthAdjust="spacingAndGlyphs" textLength="106" x="75.5" y="100.6709">doFilter(req, resp)</text><polygon fill="#225C4D" points="274.5,134.186,284.5,138.186,274.5,142.186,278.5,138.186" style="stroke: #225C4D; stroke-width: 1.0;"/><line style="stroke: #225C4D; stroke-width: 1.0;" x1="58.5" x2="280.5" y1="138.186" y2="138.186"/><text fill="#000000" font-family="sans-serif" font-size="13" lengthAdjust="spacingAndGlyphs" textLength="144" x="65.5" y="132.377">doFilter(req, resp, chain)</text><polygon fill="#225C4D" points="74.5,165.892,64.5,169.892,74.5,173.892,70.5,169.892" style="stroke: #225C4D; stroke-width: 1.0;"/><line style="stroke: #225C4D; stroke-width: 1.0;" x1="68.5" x2="285.5" y1="169.892" y2="169.892"/><text fill="#000000" font-family="sans-serif" font-size="13" lengthAdjust="spacingAndGlyphs" textLength="106" x="80.5" y="164.083">doFilter(req, resp)</text><polygon fill="#225C4D" points="346.5,197.598,356.5,201.598,346.5,205.598,350.5,201.598" style="stroke: #225C4D; stroke-width: 1.0;"/><line style="stroke: #225C4D; stroke-width: 1.0;" x1="63.5" x2="352.5" y1="201.598" y2="201.598"/><text fill="#000000" font-family="sans-serif" font-size="13" lengthAdjust="spacingAndGlyphs" textLength="101" x="70.5" y="195.789">service(req, resp)</text><line style="stroke: #225C4D; stroke-width: 1.0;" x1="368.5" x2="410.5" y1="233.304" y2="233.304"/><line style="stroke: #225C4D; stroke-width: 1.0;" x1="410.5" x2="410.5" y1="233.304" y2="246.304"/><line style="stroke: #225C4D; stroke-width: 1.0;" x1="369.5" x2="410.5" y1="246.304" y2="246.304"/><polygon fill="#225C4D" points="379.5,242.304,369.5,246.304,379.5,250.304,375.5,246.304" style="stroke: #225C4D; stroke-width: 1.0;"/><text fill="#000000" font-family="sans-serif" font-size="13" lengthAdjust="spacingAndGlyphs" textLength="97" x="375.5" y="227.495">doGet(req, resp)</text><polygon fill="#225C4D" points="69.5,256.304,59.5,260.304,69.5,264.304,65.5,260.304" style="stroke: #225C4D; stroke-width: 1.0;"/><line style="stroke: #225C4D; stroke-width: 1.0; stroke-dasharray: 2.0,2.0;" x1="63.5" x2="362.5" y1="260.304" y2="260.304"/><polygon fill="#225C4D" points="69.5,270.304,59.5,274.304,69.5,278.304,65.5,274.304" style="stroke: #225C4D; stroke-width: 1.0;"/><line style="stroke: #225C4D; stroke-width: 1.0; stroke-dasharray: 2.0,2.0;" x1="63.5" x2="290.5" y1="274.304" y2="274.304"/><polygon fill="#225C4D" points="204.5,284.304,214.5,288.304,204.5,292.304,208.5,288.304" style="stroke: #225C4D; stroke-width: 1.0;"/><line style="stroke: #225C4D; stroke-width: 1.0; stroke-dasharray: 2.0,2.0;" x1="53.5" x2="210.5" y1="288.304" y2="288.304"/><polygon fill="#225C4D" points="64.5,298.304,54.5,302.304,64.5,306.304,60.5,302.304" style="stroke: #225C4D; stroke-width: 1.0;"/><line style="stroke: #225C4D; stroke-width: 1.0; stroke-dasharray: 2.0,2.0;" x1="58.5" x2="220.5" y1="302.304" y2="302.304"/><!--MD5=[70e1763b59d88d33d303e1bdf846086b]
@startuml
skinparam class {
 BackgroundColor #DDEEE8
 BorderColor #225C4D
 ArrowColor #225C4D
 }
FilterChain -> Filter1 : doFilter(req, resp, chain)
activate Filter1
Filter1 -> FilterChain : doFilter(req, resp)
activate FilterChain
FilterChain -> Filter2 : doFilter(req, resp, chain)
activate Filter2
Filter2 -> FilterChain : doFilter(req, resp)
activate FilterChain #LightGrey
FilterChain -> Servlet: service(req, resp)
activate Servlet
Servlet -> Servlet : doGet(req, resp)
Servlet - -> FilterChain
deactivate Servlet
deactivate FilterChain
Filter2 - -> FilterChain
deactivate Filter2
FilterChain - -> Filter1
deactivate FilterChain
Filter1 - -> FilterChain
deactivate Filter1
@enduml

PlantUML version 1.2019.12(Sun Nov 03 11:24:54 CET 2019)
(APACHE source distribution)
Java Runtime: OpenJDK Runtime Environment
JVM: OpenJDK 64-Bit Server VM
Java Version: 17.0.9+9-Debian-1deb12u1
Operating System: Linux
Default Encoding: UTF-8
Language: de
Country: DE
--></g></svg>