<?xml version="1.0" encoding="UTF-8" standalone="no"?><svg xmlns="http://www.w3.org/2000/svg" xmlns:xlink="http://www.w3.org/1999/xlink" contentScriptType="application/ecmascript" contentStyleType="text/css" height="423px" preserveAspectRatio="none" style="width:706px;height:423px;" version="1.1" viewBox="0 0 706 423" width="706px" zoomAndPan="magnify"><defs><filter height="300%" id="f18lhrypm0w0rr" width="300%" x="-1" y="-1"><feGaussianBlur result="blurOut" stdDeviation="2.0"/><feColorMatrix in="blurOut" result="blurOut2" type="matrix" values="0 0 0 0 0 0 0 0 0 0 0 0 0 0 0 0 0 0 .4 0"/><feOffset dx="4.0" dy="4.0" in="blurOut2" result="blurOut3"/><feBlend in="SourceGraphic" in2="blurOut3" mode="normal"/></filter></defs><g><line style="stroke: #A80036; stroke-width: 1.0; stroke-dasharray: 5.0,5.0;" x1="42" x2="42" y1="108.1358" y2="314.6659"/><line style="stroke: #A80036; stroke-width: 1.0; stroke-dasharray: 5.0,5.0;" x1="133" x2="133" y1="108.1358" y2="314.6659"/><line style="stroke: #A80036; stroke-width: 1.0; stroke-dasharray: 5.0,5.0;" x1="375.5" x2="375.5" y1="108.1358" y2="314.6659"/><line style="stroke: #A80036; stroke-width: 1.0; stroke-dasharray: 5.0,5.0;" x1="644.5" x2="644.5" y1="108.1358" y2="314.6659"/><text fill="#000000" font-family="sans-serif" font-size="14" lengthAdjust="spacingAndGlyphs" textLength="62" x="8" y="84.9659">Resource</text><text fill="#000000" font-family="sans-serif" font-size="14" lengthAdjust="spacingAndGlyphs" textLength="45" x="16.5" y="104.0339">Owner</text><ellipse cx="42" cy="13" fill="#FEFECE" filter="url(#f18lhrypm0w0rr)" rx="8" ry="8" style="stroke: #A80036; stroke-width: 2.0;"/><path d="M42,21 L42,48 M29,29 L55,29 M42,48 L29,63 M42,48 L55,63 " fill="none" filter="url(#f18lhrypm0w0rr)" style="stroke: #A80036; stroke-width: 2.0;"/><text fill="#000000" font-family="sans-serif" font-size="14" lengthAdjust="spacingAndGlyphs" textLength="62" x="8" y="328.6319">Resource</text><text fill="#000000" font-family="sans-serif" font-size="14" lengthAdjust="spacingAndGlyphs" textLength="45" x="16.5" y="347.6998">Owner</text><ellipse cx="42" cy="361.8018" fill="#FEFECE" filter="url(#f18lhrypm0w0rr)" rx="8" ry="8" style="stroke: #A80036; stroke-width: 2.0;"/><path d="M42,369.8018 L42,396.8018 M29,377.8018 L55,377.8018 M42,396.8018 L29,411.8018 M42,396.8018 L55,411.8018 " fill="none" filter="url(#f18lhrypm0w0rr)" style="stroke: #A80036; stroke-width: 2.0;"/><rect fill="#FEFECE" filter="url(#f18lhrypm0w0rr)" height="52.1358" style="stroke: #A80036; stroke-width: 1.5;" width="90" x="86" y="51"/><text fill="#000000" font-family="sans-serif" font-size="14" lengthAdjust="spacingAndGlyphs" textLength="76" x="93" y="72.9659">User-Agent</text><text fill="#000000" font-family="sans-serif" font-size="14" lengthAdjust="spacingAndGlyphs" textLength="63" x="99.5" y="92.0339">(Browser)</text><rect fill="#FEFECE" filter="url(#f18lhrypm0w0rr)" height="52.1358" style="stroke: #A80036; stroke-width: 1.5;" width="90" x="86" y="313.6659"/><text fill="#000000" font-family="sans-serif" font-size="14" lengthAdjust="spacingAndGlyphs" textLength="76" x="93" y="335.6319">User-Agent</text><text fill="#000000" font-family="sans-serif" font-size="14" lengthAdjust="spacingAndGlyphs" textLength="63" x="99.5" y="354.6998">(Browser)</text><rect fill="#FEFECE" filter="url(#f18lhrypm0w0rr)" height="33.0679" style="stroke: #A80036; stroke-width: 1.5;" width="53" x="347.5" y="70.0679"/><text fill="#000000" font-family="sans-serif" font-size="14" lengthAdjust="spacingAndGlyphs" textLength="39" x="354.5" y="92.0339">Client</text><rect fill="#FEFECE" filter="url(#f18lhrypm0w0rr)" height="33.0679" style="stroke: #A80036; stroke-width: 1.5;" width="53" x="347.5" y="313.6659"/><text fill="#000000" font-family="sans-serif" font-size="14" lengthAdjust="spacingAndGlyphs" textLength="39" x="354.5" y="335.6319">Client</text><rect fill="#FEFECE" filter="url(#f18lhrypm0w0rr)" height="52.1358" style="stroke: #A80036; stroke-width: 1.5;" width="105" x="590.5" y="51"/><text fill="#000000" font-family="sans-serif" font-size="14" lengthAdjust="spacingAndGlyphs" textLength="91" x="597.5" y="72.9659">Authorization</text><text fill="#000000" font-family="sans-serif" font-size="14" lengthAdjust="spacingAndGlyphs" textLength="43" x="621.5" y="92.0339">Server</text><rect fill="#FEFECE" filter="url(#f18lhrypm0w0rr)" height="52.1358" style="stroke: #A80036; stroke-width: 1.5;" width="105" x="590.5" y="313.6659"/><text fill="#000000" font-family="sans-serif" font-size="14" lengthAdjust="spacingAndGlyphs" textLength="91" x="597.5" y="335.6319">Authorization</text><text fill="#000000" font-family="sans-serif" font-size="14" lengthAdjust="spacingAndGlyphs" textLength="43" x="621.5" y="354.6998">Server</text><polygon fill="#225C4D" points="144,137.8419,134,141.8419,144,145.8419,140,141.8419" style="stroke: #225C4D; stroke-width: 1.0;"/><line style="stroke: #225C4D; stroke-width: 1.0;" x1="138" x2="375" y1="141.8419" y2="141.8419"/><text fill="#000000" font-family="sans-serif" font-size="13" lengthAdjust="spacingAndGlyphs" textLength="219" x="150" y="136.0328">Client Identifier &amp; Redirection URI (A)</text><polygon fill="#225C4D" points="144,169.5479,134,173.5479,144,177.5479,140,173.5479" style="stroke: #225C4D; stroke-width: 1.0;"/><polygon fill="#225C4D" points="633,169.5479,643,173.5479,633,177.5479,637,173.5479" style="stroke: #225C4D; stroke-width: 1.0;"/><line style="stroke: #225C4D; stroke-width: 1.0;" x1="138" x2="639" y1="173.5479" y2="173.5479"/><text fill="#000000" font-family="sans-serif" font-size="13" lengthAdjust="spacingAndGlyphs" textLength="132" x="150" y="167.7389">User authenticates (B)</text><polygon fill="#225C4D" points="53,183.5479,43,187.5479,53,191.5479,49,187.5479" style="stroke: #225C4D; stroke-width: 1.0;"/><polygon fill="#225C4D" points="121,183.5479,131,187.5479,121,191.5479,125,187.5479" style="stroke: #225C4D; stroke-width: 1.0;"/><line style="stroke: #225C4D; stroke-width: 1.0;" x1="47" x2="127" y1="187.5479" y2="187.5479"/><polygon fill="#225C4D" points="144,215.2539,134,219.2539,144,223.2539,140,219.2539" style="stroke: #225C4D; stroke-width: 1.0;"/><line style="stroke: #225C4D; stroke-width: 1.0;" x1="138" x2="644" y1="219.2539" y2="219.2539"/><text fill="#000000" font-family="sans-serif" font-size="13" lengthAdjust="spacingAndGlyphs" textLength="135" x="150" y="213.4449">Authorization Code (C)</text><polygon fill="#225C4D" points="364,229.2539,374,233.2539,364,237.2539,368,233.2539" style="stroke: #225C4D; stroke-width: 1.0;"/><line style="stroke: #225C4D; stroke-width: 1.0;" x1="133" x2="370" y1="233.2539" y2="233.2539"/><polygon fill="#225C4D" points="633,260.9599,643,264.9599,633,268.9599,637,264.9599" style="stroke: #225C4D; stroke-width: 1.0;"/><line style="stroke: #225C4D; stroke-width: 1.0;" x1="376" x2="639" y1="264.9599" y2="264.9599"/><text fill="#000000" font-family="sans-serif" font-size="13" lengthAdjust="spacingAndGlyphs" textLength="245" x="383" y="259.1509">Authorization Code &amp; Redirection URI (D)</text><polygon fill="#225C4D" points="387,292.6659,377,296.6659,387,300.6659,383,296.6659" style="stroke: #225C4D; stroke-width: 1.0;"/><line style="stroke: #225C4D; stroke-width: 1.0;" x1="381" x2="644" y1="296.6659" y2="296.6659"/><text fill="#000000" font-family="sans-serif" font-size="13" lengthAdjust="spacingAndGlyphs" textLength="97" x="393" y="290.8569">Access Token (E)</text><!--MD5=[27d9edf71b7f7c74f9b0952dafa62094]
@startuml
skinparam class {
 BackgroundColor #DDEEE8
 BorderColor #225C4D
 ArrowColor #225C4D
 }

actor "Resource\nOwner"
participant "User-Agent\n(Browser)"

Client -> "User-Agent\n(Browser)" : Client Identifier & Redirection URI (A)
"User-Agent\n(Browser)" <-> "Authorization\nServer" : User authenticates (B)
"User-Agent\n(Browser)" <-> "Resource\nOwner"
"Authorization\nServer" -> "User-Agent\n(Browser)" : Authorization Code (C)
"User-Agent\n(Browser)" -> Client
Client -> "Authorization\nServer" : Authorization Code & Redirection URI (D)
"Authorization\nServer" -> Client : Access Token (E)
@enduml

PlantUML version 1.2019.12(Sun Nov 03 11:24:54 CET 2019)
(APACHE source distribution)
Java Runtime: OpenJDK Runtime Environment
JVM: OpenJDK 64-Bit Server VM
Java Version: 17.0.9+9-Debian-1deb12u1
Operating System: Linux
Default Encoding: UTF-8
Language: de
Country: DE
--></g></svg>