<?xml version="1.0" encoding="UTF-8" standalone="no"?><svg xmlns="http://www.w3.org/2000/svg" xmlns:xlink="http://www.w3.org/1999/xlink" contentScriptType="application/ecmascript" contentStyleType="text/css" height="281px" preserveAspectRatio="none" style="width:411px;height:281px;" version="1.1" viewBox="0 0 411 281" width="411px" zoomAndPan="magnify"><defs><filter height="300%" id="f1vixtyupc05u" width="300%" x="-1" y="-1"><feGaussianBlur result="blurOut" stdDeviation="2.0"/><feColorMatrix in="blurOut" result="blurOut2" type="matrix" values="0 0 0 0 0 0 0 0 0 0 0 0 0 0 0 0 0 0 .4 0"/><feOffset dx="4.0" dy="4.0" in="blurOut2" result="blurOut3"/><feBlend in="SourceGraphic" in2="blurOut3" mode="normal"/></filter></defs><g><!--MD5=[d0da0a299942266ebd64acf2b2e95fa4]
class Subject--><rect fill="#DDEEE8" filter="url(#f1vixtyupc05u)" height="48" id="Subject" style="stroke: #225C4D; stroke-width: 1.5;" width="73" x="180" y="8"/><ellipse cx="195" cy="24" fill="#ADD1B2" rx="11" ry="11" style="stroke: #225C4D; stroke-width: 1.0;"/><path d="M194.4688,30.9219 Q192.7188,30.9219 191.5781,30.1875 Q190.4531,29.4375 189.8906,28.0938 Q189.3438,26.7344 189.3438,24.9375 Q189.3438,22.9063 190,21.4531 Q190.6563,20 191.9375,19.2188 Q193.2188,18.4375 195.0938,18.4375 Q195.9844,18.4375 196.6563,18.625 Q197.3281,18.7969 198.0156,19.1406 L197.2031,21.1563 Q196.5781,20.8438 196.0313,20.7188 Q195.5,20.5938 195.0156,20.5938 Q193.8438,20.5938 193.1406,21.125 Q192.4375,21.6563 192.1406,22.6094 Q191.8438,23.5625 191.8438,24.8281 Q191.8438,26.8438 192.5625,27.8125 Q193.2813,28.7656 194.875,28.7656 Q195.4688,28.7656 196.0938,28.6094 Q196.7188,28.4531 197.5469,28.0781 L197.5469,30.2969 Q196.8125,30.6094 196.0156,30.7656 Q195.2344,30.9219 194.4688,30.9219 Z "/><text fill="#000000" font-family="sans-serif" font-size="12" lengthAdjust="spacingAndGlyphs" textLength="41" x="209" y="28.656">Subject</text><line style="stroke: #225C4D; stroke-width: 1.5;" x1="181" x2="252" y1="40" y2="40"/><line style="stroke: #225C4D; stroke-width: 1.5;" x1="181" x2="252" y1="48" y2="48"/><path d="M6,18 L6,45.706 A0,0 0 0 0 6,45.706 L145,45.706 A0,0 0 0 0 145,45.706 L145,36 L179.72,32 L145,28 L145,28 L135,18 L6,18 A0,0 0 0 0 6,18 " fill="#FBFB77" filter="url(#f1vixtyupc05u)" style="stroke: #A80036; stroke-width: 1.0;"/><path d="M135,18 L135,28 L145,28 L135,18 " fill="#FBFB77" style="stroke: #A80036; stroke-width: 1.0;"/><text fill="#000000" font-family="sans-serif" font-size="13" lengthAdjust="spacingAndGlyphs" textLength="118" x="12" y="36.897">Person oder Service</text><path d="M14.5,224 L14.5,269.412 A0,0 0 0 0 14.5,269.412 L186.5,269.412 A0,0 0 0 0 186.5,269.412 L186.5,234 L176.5,224 L113.84,224 L135.51,164.19 L105.84,224 L14.5,224 A0,0 0 0 0 14.5,224 " fill="#FBFB77" filter="url(#f1vixtyupc05u)" style="stroke: #A80036; stroke-width: 1.0;"/><path d="M176.5,224 L176.5,234 L186.5,234 L176.5,224 " fill="#FBFB77" style="stroke: #A80036; stroke-width: 1.0;"/><text fill="#000000" font-family="sans-serif" font-size="13" lengthAdjust="spacingAndGlyphs" textLength="131" x="20.5" y="242.897">Name, E-Mail Adresse,</text><text fill="#000000" font-family="sans-serif" font-size="13" lengthAdjust="spacingAndGlyphs" textLength="151" x="20.5" y="260.603">Kreditkartennummer etc.</text><path d="M222,224 L222,269.412 A0,0 0 0 0 222,269.412 L399,269.412 A0,0 0 0 0 399,269.412 L399,234 L389,224 L309.72,224 L292.6,164.19 L301.72,224 L222,224 A0,0 0 0 0 222,224 " fill="#FBFB77" filter="url(#f1vixtyupc05u)" style="stroke: #A80036; stroke-width: 1.0;"/><path d="M389,224 L389,234 L399,234 L389,224 " fill="#FBFB77" style="stroke: #A80036; stroke-width: 1.0;"/><text fill="#000000" font-family="sans-serif" font-size="13" lengthAdjust="spacingAndGlyphs" textLength="156" x="228" y="242.897">Password, Kerberos Ticket</text><text fill="#000000" font-family="sans-serif" font-size="13" lengthAdjust="spacingAndGlyphs" textLength="141" x="228" y="260.603">Public Key Zertifikat etc.</text><!--MD5=[bfe80886124190284096452d0cb4568d]
class Principal--><rect fill="#DDEEE8" filter="url(#f1vixtyupc05u)" height="48" id="Principal" style="stroke: #225C4D; stroke-width: 1.5;" width="80" x="105.5" y="116"/><ellipse cx="120.5" cy="132" fill="#ADD1B2" rx="11" ry="11" style="stroke: #225C4D; stroke-width: 1.0;"/><path d="M119.9688,138.9219 Q118.2188,138.9219 117.0781,138.1875 Q115.9531,137.4375 115.3906,136.0938 Q114.8438,134.7344 114.8438,132.9375 Q114.8438,130.9063 115.5,129.4531 Q116.1563,128 117.4375,127.2188 Q118.7188,126.4375 120.5938,126.4375 Q121.4844,126.4375 122.1563,126.625 Q122.8281,126.7969 123.5156,127.1406 L122.7031,129.1563 Q122.0781,128.8438 121.5313,128.7188 Q121,128.5938 120.5156,128.5938 Q119.3438,128.5938 118.6406,129.125 Q117.9375,129.6563 117.6406,130.6094 Q117.3438,131.5625 117.3438,132.8281 Q117.3438,134.8438 118.0625,135.8125 Q118.7813,136.7656 120.375,136.7656 Q120.9688,136.7656 121.5938,136.6094 Q122.2188,136.4531 123.0469,136.0781 L123.0469,138.2969 Q122.3125,138.6094 121.5156,138.7656 Q120.7344,138.9219 119.9688,138.9219 Z "/><text fill="#000000" font-family="sans-serif" font-size="12" lengthAdjust="spacingAndGlyphs" textLength="48" x="134.5" y="136.656">Principal</text><line style="stroke: #225C4D; stroke-width: 1.5;" x1="106.5" x2="184.5" y1="148" y2="148"/><line style="stroke: #225C4D; stroke-width: 1.5;" x1="106.5" x2="184.5" y1="156" y2="156"/><!--MD5=[270a02414e6f22a29d048d08eafde2d4]
class Credential--><rect fill="#DDEEE8" filter="url(#f1vixtyupc05u)" height="48" id="Credential" style="stroke: #225C4D; stroke-width: 1.5;" width="90" x="242.5" y="116"/><ellipse cx="257.5" cy="132" fill="#ADD1B2" rx="11" ry="11" style="stroke: #225C4D; stroke-width: 1.0;"/><path d="M256.9688,138.9219 Q255.2188,138.9219 254.0781,138.1875 Q252.9531,137.4375 252.3906,136.0938 Q251.8438,134.7344 251.8438,132.9375 Q251.8438,130.9063 252.5,129.4531 Q253.1563,128 254.4375,127.2188 Q255.7188,126.4375 257.5938,126.4375 Q258.4844,126.4375 259.1563,126.625 Q259.8281,126.7969 260.5156,127.1406 L259.7031,129.1563 Q259.0781,128.8438 258.5313,128.7188 Q258,128.5938 257.5156,128.5938 Q256.3438,128.5938 255.6406,129.125 Q254.9375,129.6563 254.6406,130.6094 Q254.3438,131.5625 254.3438,132.8281 Q254.3438,134.8438 255.0625,135.8125 Q255.7813,136.7656 257.375,136.7656 Q257.9688,136.7656 258.5938,136.6094 Q259.2188,136.4531 260.0469,136.0781 L260.0469,138.2969 Q259.3125,138.6094 258.5156,138.7656 Q257.7344,138.9219 256.9688,138.9219 Z "/><text fill="#000000" font-family="sans-serif" font-size="12" lengthAdjust="spacingAndGlyphs" textLength="58" x="271.5" y="136.656">Credential</text><line style="stroke: #225C4D; stroke-width: 1.5;" x1="243.5" x2="331.5" y1="148" y2="148"/><line style="stroke: #225C4D; stroke-width: 1.5;" x1="243.5" x2="331.5" y1="156" y2="156"/><!--MD5=[d9815d498c1495e82158eb4ab3471750]
link Subject to Principal--><path d="M201.09,56 C190.19,72.28 175.52,94.19 163.98,111.41 " fill="none" id="Subject-&gt;Principal" style="stroke: #225C4D; stroke-width: 1.0;"/><polygon fill="#225C4D" points="161.12,115.68,169.453,110.4301,163.9034,111.5263,162.8072,105.9767,161.12,115.68" style="stroke: #225C4D; stroke-width: 1.0;"/><text fill="#000000" font-family="sans-serif" font-size="13" lengthAdjust="spacingAndGlyphs" textLength="7" x="157.2258" y="104.2573">*</text><!--MD5=[f1bff674d903b67c6000f6d1c6b7f299]
link Subject to Credential--><path d="M231.91,56 C242.81,72.28 257.48,94.19 269.02,111.41 " fill="none" id="Subject-&gt;Credential" style="stroke: #225C4D; stroke-width: 1.0;"/><polygon fill="#225C4D" points="271.88,115.68,270.1928,105.9767,269.0966,111.5263,263.547,110.4301,271.88,115.68" style="stroke: #225C4D; stroke-width: 1.0;"/><text fill="#000000" font-family="sans-serif" font-size="13" lengthAdjust="spacingAndGlyphs" textLength="7" x="259.9805" y="104.2573">*</text><!--MD5=[13242f1315ae46d44fd03d0fe1f47acb]
@startuml
skinparam class {
 BackgroundColor #DDEEE8
 BorderColor #225C4D
 ArrowColor #225C4D
 }
class Subject
note left: Person oder Service
note "Name, E-Mail Adresse,\nKreditkartennummer etc." as P
note "Password, Kerberos Ticket\nPublic Key Zertifikat etc." as C

Subject - -> "*" Principal
Subject - -> "*" Credential

Principal .. P
Credential .. C
@enduml

PlantUML version 1.2019.12(Sun Nov 03 11:24:54 CET 2019)
(APACHE source distribution)
Java Runtime: OpenJDK Runtime Environment
JVM: OpenJDK 64-Bit Server VM
Java Version: 17.0.9+9-Debian-1deb12u1
Operating System: Linux
Default Encoding: UTF-8
Language: de
Country: DE
--></g></svg>