<?xml version="1.0" encoding="UTF-8" standalone="no"?><svg xmlns="http://www.w3.org/2000/svg" xmlns:xlink="http://www.w3.org/1999/xlink" contentScriptType="application/ecmascript" contentStyleType="text/css" height="391px" preserveAspectRatio="none" style="width:1182px;height:391px;" version="1.1" viewBox="0 0 1182 391" width="1182px" zoomAndPan="magnify"><defs><filter height="300%" id="ftzlipgxvsbwp" width="300%" x="-1" y="-1"><feGaussianBlur result="blurOut" stdDeviation="2.0"/><feColorMatrix in="blurOut" result="blurOut2" type="matrix" values="0 0 0 0 0 0 0 0 0 0 0 0 0 0 0 0 0 0 .4 0"/><feOffset dx="4.0" dy="4.0" in="blurOut2" result="blurOut3"/><feBlend in="SourceGraphic" in2="blurOut3" mode="normal"/></filter></defs><g><!--MD5=[bd5220611d0c28d928ccc89c278a01cf]
class ApplicationContext--><rect fill="#DDEEE8" filter="url(#ftzlipgxvsbwp)" height="48" id="ApplicationContext" style="stroke: #225C4D; stroke-width: 1.5;" width="133" x="353" y="8"/><ellipse cx="368" cy="24" fill="#B4A7E5" rx="11" ry="11" style="stroke: #225C4D; stroke-width: 1.0;"/><path d="M364.0313,30.5 L364.0313,28.7969 L366.3906,28.5313 L366.3906,20.3281 L364.0313,20.0625 L364.0313,18.3594 L371.1719,18.3594 L371.1719,20.0625 L368.75,20.3281 L368.75,28.5313 L371.1719,28.7969 L371.1719,30.5 L364.0313,30.5 Z "/><text fill="#000000" font-family="sans-serif" font-size="12" font-style="italic" lengthAdjust="spacingAndGlyphs" textLength="101" x="382" y="28.656">ApplicationContext</text><line style="stroke: #225C4D; stroke-width: 1.5;" x1="354" x2="485" y1="40" y2="40"/><line style="stroke: #225C4D; stroke-width: 1.5;" x1="354" x2="485" y1="48" y2="48"/><!--MD5=[25babdaaa420b6624a10302656c23378]
class WebApplicationContext--><rect fill="#DDEEE8" filter="url(#ftzlipgxvsbwp)" height="48" id="WebApplicationContext" style="stroke: #225C4D; stroke-width: 1.5;" width="156" x="521.5" y="8"/><ellipse cx="536.5" cy="24" fill="#B4A7E5" rx="11" ry="11" style="stroke: #225C4D; stroke-width: 1.0;"/><path d="M532.5313,30.5 L532.5313,28.7969 L534.8906,28.5313 L534.8906,20.3281 L532.5313,20.0625 L532.5313,18.3594 L539.6719,18.3594 L539.6719,20.0625 L537.25,20.3281 L537.25,28.5313 L539.6719,28.7969 L539.6719,30.5 L532.5313,30.5 Z "/><text fill="#000000" font-family="sans-serif" font-size="12" font-style="italic" lengthAdjust="spacingAndGlyphs" textLength="124" x="550.5" y="28.656">WebApplicationContext</text><line style="stroke: #225C4D; stroke-width: 1.5;" x1="522.5" x2="676.5" y1="40" y2="40"/><line style="stroke: #225C4D; stroke-width: 1.5;" x1="522.5" x2="676.5" y1="48" y2="48"/><!--MD5=[bc42f8007547cbb7408e9d726a1110ed]
class ConfigurableWebApplicationContext--><rect fill="#DDEEE8" filter="url(#ftzlipgxvsbwp)" height="48" id="ConfigurableWebApplicationContext" style="stroke: #225C4D; stroke-width: 1.5;" width="226" x="712.5" y="8"/><ellipse cx="727.5" cy="24" fill="#B4A7E5" rx="11" ry="11" style="stroke: #225C4D; stroke-width: 1.0;"/><path d="M723.5313,30.5 L723.5313,28.7969 L725.8906,28.5313 L725.8906,20.3281 L723.5313,20.0625 L723.5313,18.3594 L730.6719,18.3594 L730.6719,20.0625 L728.25,20.3281 L728.25,28.5313 L730.6719,28.7969 L730.6719,30.5 L723.5313,30.5 Z "/><text fill="#000000" font-family="sans-serif" font-size="12" font-style="italic" lengthAdjust="spacingAndGlyphs" textLength="194" x="741.5" y="28.656">ConfigurableWebApplicationContext</text><line style="stroke: #225C4D; stroke-width: 1.5;" x1="713.5" x2="937.5" y1="40" y2="40"/><line style="stroke: #225C4D; stroke-width: 1.5;" x1="713.5" x2="937.5" y1="48" y2="48"/><!--MD5=[04685d28980d4b25c14a8a8744ca97b7]
class AbstractRefreshableWebApplicationContext--><rect fill="#DDEEE8" filter="url(#ftzlipgxvsbwp)" height="48" id="AbstractRefreshableWebApplicationContext" style="stroke: #225C4D; stroke-width: 1.5;" width="276" x="362.5" y="116"/><ellipse cx="377.5" cy="132" fill="#ADD1B2" rx="11" ry="11" style="stroke: #225C4D; stroke-width: 1.0;"/><path d="M376.9688,138.9219 Q375.2188,138.9219 374.0781,138.1875 Q372.9531,137.4375 372.3906,136.0938 Q371.8438,134.7344 371.8438,132.9375 Q371.8438,130.9063 372.5,129.4531 Q373.1563,128 374.4375,127.2188 Q375.7188,126.4375 377.5938,126.4375 Q378.4844,126.4375 379.1563,126.625 Q379.8281,126.7969 380.5156,127.1406 L379.7031,129.1563 Q379.0781,128.8438 378.5313,128.7188 Q378,128.5938 377.5156,128.5938 Q376.3438,128.5938 375.6406,129.125 Q374.9375,129.6563 374.6406,130.6094 Q374.3438,131.5625 374.3438,132.8281 Q374.3438,134.8438 375.0625,135.8125 Q375.7813,136.7656 377.375,136.7656 Q377.9688,136.7656 378.5938,136.6094 Q379.2188,136.4531 380.0469,136.0781 L380.0469,138.2969 Q379.3125,138.6094 378.5156,138.7656 Q377.7344,138.9219 376.9688,138.9219 Z "/><text fill="#000000" font-family="sans-serif" font-size="12" lengthAdjust="spacingAndGlyphs" textLength="244" x="391.5" y="136.656">AbstractRefreshableWebApplicationContext</text><line style="stroke: #225C4D; stroke-width: 1.5;" x1="363.5" x2="637.5" y1="148" y2="148"/><line style="stroke: #225C4D; stroke-width: 1.5;" x1="363.5" x2="637.5" y1="156" y2="156"/><!--MD5=[4fb55b0a72f63582ec2f5f9c02ba17ba]
class AnnotationConfigWebApplicationContext--><rect fill="#DDEEE8" filter="url(#ftzlipgxvsbwp)" height="48" id="AnnotationConfigWebApplicationContext" style="stroke: #225C4D; stroke-width: 1.5;" width="259" x="6" y="224"/><ellipse cx="21" cy="240" fill="#ADD1B2" rx="11" ry="11" style="stroke: #225C4D; stroke-width: 1.0;"/><path d="M20.4688,246.9219 Q18.7188,246.9219 17.5781,246.1875 Q16.4531,245.4375 15.8906,244.0938 Q15.3438,242.7344 15.3438,240.9375 Q15.3438,238.9063 16,237.4531 Q16.6563,236 17.9375,235.2188 Q19.2188,234.4375 21.0938,234.4375 Q21.9844,234.4375 22.6563,234.625 Q23.3281,234.7969 24.0156,235.1406 L23.2031,237.1563 Q22.5781,236.8438 22.0313,236.7188 Q21.5,236.5938 21.0156,236.5938 Q19.8438,236.5938 19.1406,237.125 Q18.4375,237.6563 18.1406,238.6094 Q17.8438,239.5625 17.8438,240.8281 Q17.8438,242.8438 18.5625,243.8125 Q19.2813,244.7656 20.875,244.7656 Q21.4688,244.7656 22.0938,244.6094 Q22.7188,244.4531 23.5469,244.0781 L23.5469,246.2969 Q22.8125,246.6094 22.0156,246.7656 Q21.2344,246.9219 20.4688,246.9219 Z "/><text fill="#000000" font-family="sans-serif" font-size="12" lengthAdjust="spacingAndGlyphs" textLength="227" x="35" y="244.656">AnnotationConfigWebApplicationContext</text><line style="stroke: #225C4D; stroke-width: 1.5;" x1="7" x2="264" y1="256" y2="256"/><line style="stroke: #225C4D; stroke-width: 1.5;" x1="7" x2="264" y1="264" y2="264"/><!--MD5=[aee1d6c27bd0a76e4ca4f4ae5a18548c]
class GroovyWebApplicationContext--><rect fill="#DDEEE8" filter="url(#ftzlipgxvsbwp)" height="48" id="GroovyWebApplicationContext" style="stroke: #225C4D; stroke-width: 1.5;" width="202" x="300.5" y="224"/><ellipse cx="315.5" cy="240" fill="#ADD1B2" rx="11" ry="11" style="stroke: #225C4D; stroke-width: 1.0;"/><path d="M314.9688,246.9219 Q313.2188,246.9219 312.0781,246.1875 Q310.9531,245.4375 310.3906,244.0938 Q309.8438,242.7344 309.8438,240.9375 Q309.8438,238.9063 310.5,237.4531 Q311.1563,236 312.4375,235.2188 Q313.7188,234.4375 315.5938,234.4375 Q316.4844,234.4375 317.1563,234.625 Q317.8281,234.7969 318.5156,235.1406 L317.7031,237.1563 Q317.0781,236.8438 316.5313,236.7188 Q316,236.5938 315.5156,236.5938 Q314.3438,236.5938 313.6406,237.125 Q312.9375,237.6563 312.6406,238.6094 Q312.3438,239.5625 312.3438,240.8281 Q312.3438,242.8438 313.0625,243.8125 Q313.7813,244.7656 315.375,244.7656 Q315.9688,244.7656 316.5938,244.6094 Q317.2188,244.4531 318.0469,244.0781 L318.0469,246.2969 Q317.3125,246.6094 316.5156,246.7656 Q315.7344,246.9219 314.9688,246.9219 Z "/><text fill="#000000" font-family="sans-serif" font-size="12" lengthAdjust="spacingAndGlyphs" textLength="170" x="329.5" y="244.656">GroovyWebApplicationContext</text><line style="stroke: #225C4D; stroke-width: 1.5;" x1="301.5" x2="501.5" y1="256" y2="256"/><line style="stroke: #225C4D; stroke-width: 1.5;" x1="301.5" x2="501.5" y1="264" y2="264"/><!--MD5=[6da6fa950c2a0921d926be55a4d06b12]
class XmlWebApplicationContext--><rect fill="#DDEEE8" filter="url(#ftzlipgxvsbwp)" height="48" id="XmlWebApplicationContext" style="stroke: #225C4D; stroke-width: 1.5;" width="183" x="538" y="224"/><ellipse cx="553" cy="240" fill="#ADD1B2" rx="11" ry="11" style="stroke: #225C4D; stroke-width: 1.0;"/><path d="M552.4688,246.9219 Q550.7188,246.9219 549.5781,246.1875 Q548.4531,245.4375 547.8906,244.0938 Q547.3438,242.7344 547.3438,240.9375 Q547.3438,238.9063 548,237.4531 Q548.6563,236 549.9375,235.2188 Q551.2188,234.4375 553.0938,234.4375 Q553.9844,234.4375 554.6563,234.625 Q555.3281,234.7969 556.0156,235.1406 L555.2031,237.1563 Q554.5781,236.8438 554.0313,236.7188 Q553.5,236.5938 553.0156,236.5938 Q551.8438,236.5938 551.1406,237.125 Q550.4375,237.6563 550.1406,238.6094 Q549.8438,239.5625 549.8438,240.8281 Q549.8438,242.8438 550.5625,243.8125 Q551.2813,244.7656 552.875,244.7656 Q553.4688,244.7656 554.0938,244.6094 Q554.7188,244.4531 555.5469,244.0781 L555.5469,246.2969 Q554.8125,246.6094 554.0156,246.7656 Q553.2344,246.9219 552.4688,246.9219 Z "/><text fill="#000000" font-family="sans-serif" font-size="12" lengthAdjust="spacingAndGlyphs" textLength="151" x="567" y="244.656">XmlWebApplicationContext</text><line style="stroke: #225C4D; stroke-width: 1.5;" x1="539" x2="720" y1="256" y2="256"/><line style="stroke: #225C4D; stroke-width: 1.5;" x1="539" x2="720" y1="264" y2="264"/><!--MD5=[03b475f2db410d86c89ea5c92a71caa3]
class GenericWebApplicationContext--><rect fill="#DDEEE8" filter="url(#ftzlipgxvsbwp)" height="48" id="GenericWebApplicationContext" style="stroke: #225C4D; stroke-width: 1.5;" width="206" x="722.5" y="116"/><ellipse cx="737.5" cy="132" fill="#ADD1B2" rx="11" ry="11" style="stroke: #225C4D; stroke-width: 1.0;"/><path d="M736.9688,138.9219 Q735.2188,138.9219 734.0781,138.1875 Q732.9531,137.4375 732.3906,136.0938 Q731.8438,134.7344 731.8438,132.9375 Q731.8438,130.9063 732.5,129.4531 Q733.1563,128 734.4375,127.2188 Q735.7188,126.4375 737.5938,126.4375 Q738.4844,126.4375 739.1563,126.625 Q739.8281,126.7969 740.5156,127.1406 L739.7031,129.1563 Q739.0781,128.8438 738.5313,128.7188 Q738,128.5938 737.5156,128.5938 Q736.3438,128.5938 735.6406,129.125 Q734.9375,129.6563 734.6406,130.6094 Q734.3438,131.5625 734.3438,132.8281 Q734.3438,134.8438 735.0625,135.8125 Q735.7813,136.7656 737.375,136.7656 Q737.9688,136.7656 738.5938,136.6094 Q739.2188,136.4531 740.0469,136.0781 L740.0469,138.2969 Q739.3125,138.6094 738.5156,138.7656 Q737.7344,138.9219 736.9688,138.9219 Z "/><text fill="#000000" font-family="sans-serif" font-size="12" lengthAdjust="spacingAndGlyphs" textLength="174" x="751.5" y="136.656">GenericWebApplicationContext</text><line style="stroke: #225C4D; stroke-width: 1.5;" x1="723.5" x2="927.5" y1="148" y2="148"/><line style="stroke: #225C4D; stroke-width: 1.5;" x1="723.5" x2="927.5" y1="156" y2="156"/><!--MD5=[8e07e5361c05f00ffd64f46ceefa7ceb]
class ServletWebServerApplicationContext--><rect fill="#DDEEE8" filter="url(#ftzlipgxvsbwp)" height="48" id="ServletWebServerApplicationContext" style="stroke: #225C4D; stroke-width: 1.5;" width="238" x="756.5" y="224"/><ellipse cx="771.5" cy="240" fill="#ADD1B2" rx="11" ry="11" style="stroke: #225C4D; stroke-width: 1.0;"/><path d="M770.9688,246.9219 Q769.2188,246.9219 768.0781,246.1875 Q766.9531,245.4375 766.3906,244.0938 Q765.8438,242.7344 765.8438,240.9375 Q765.8438,238.9063 766.5,237.4531 Q767.1563,236 768.4375,235.2188 Q769.7188,234.4375 771.5938,234.4375 Q772.4844,234.4375 773.1563,234.625 Q773.8281,234.7969 774.5156,235.1406 L773.7031,237.1563 Q773.0781,236.8438 772.5313,236.7188 Q772,236.5938 771.5156,236.5938 Q770.3438,236.5938 769.6406,237.125 Q768.9375,237.6563 768.6406,238.6094 Q768.3438,239.5625 768.3438,240.8281 Q768.3438,242.8438 769.0625,243.8125 Q769.7813,244.7656 771.375,244.7656 Q771.9688,244.7656 772.5938,244.6094 Q773.2188,244.4531 774.0469,244.0781 L774.0469,246.2969 Q773.3125,246.6094 772.5156,246.7656 Q771.7344,246.9219 770.9688,246.9219 Z "/><text fill="#000000" font-family="sans-serif" font-size="12" lengthAdjust="spacingAndGlyphs" textLength="206" x="785.5" y="244.656">ServletWebServerApplicationContext</text><line style="stroke: #225C4D; stroke-width: 1.5;" x1="757.5" x2="993.5" y1="256" y2="256"/><line style="stroke: #225C4D; stroke-width: 1.5;" x1="757.5" x2="993.5" y1="264" y2="264"/><!--MD5=[afc8ed9fe81e4ff4415db93def74a3e7]
class AnnotationConfigServletWebServerApplicationContext--><rect fill="#DDEEE8" filter="url(#ftzlipgxvsbwp)" height="48" id="AnnotationConfigServletWebServerApplicationContext" style="stroke: #225C4D; stroke-width: 1.5;" width="335" x="542" y="332"/><ellipse cx="557" cy="348" fill="#ADD1B2" rx="11" ry="11" style="stroke: #225C4D; stroke-width: 1.0;"/><path d="M556.4688,354.9219 Q554.7188,354.9219 553.5781,354.1875 Q552.4531,353.4375 551.8906,352.0938 Q551.3438,350.7344 551.3438,348.9375 Q551.3438,346.9063 552,345.4531 Q552.6563,344 553.9375,343.2188 Q555.2188,342.4375 557.0938,342.4375 Q557.9844,342.4375 558.6563,342.625 Q559.3281,342.7969 560.0156,343.1406 L559.2031,345.1563 Q558.5781,344.8438 558.0313,344.7188 Q557.5,344.5938 557.0156,344.5938 Q555.8438,344.5938 555.1406,345.125 Q554.4375,345.6563 554.1406,346.6094 Q553.8438,347.5625 553.8438,348.8281 Q553.8438,350.8438 554.5625,351.8125 Q555.2813,352.7656 556.875,352.7656 Q557.4688,352.7656 558.0938,352.6094 Q558.7188,352.4531 559.5469,352.0781 L559.5469,354.2969 Q558.8125,354.6094 558.0156,354.7656 Q557.2344,354.9219 556.4688,354.9219 Z "/><text fill="#000000" font-family="sans-serif" font-size="12" lengthAdjust="spacingAndGlyphs" textLength="303" x="571" y="352.656">AnnotationConfigServletWebServerApplicationContext</text><line style="stroke: #225C4D; stroke-width: 1.5;" x1="543" x2="876" y1="364" y2="364"/><line style="stroke: #225C4D; stroke-width: 1.5;" x1="543" x2="876" y1="372" y2="372"/><!--MD5=[634c87d564a011f2bf5dfe1c00656f69]
class XmlServletWebServerApplicationContext--><rect fill="#DDEEE8" filter="url(#ftzlipgxvsbwp)" height="48" id="XmlServletWebServerApplicationContext" style="stroke: #225C4D; stroke-width: 1.5;" width="259" x="912" y="332"/><ellipse cx="927" cy="348" fill="#ADD1B2" rx="11" ry="11" style="stroke: #225C4D; stroke-width: 1.0;"/><path d="M926.4688,354.9219 Q924.7188,354.9219 923.5781,354.1875 Q922.4531,353.4375 921.8906,352.0938 Q921.3438,350.7344 921.3438,348.9375 Q921.3438,346.9063 922,345.4531 Q922.6563,344 923.9375,343.2188 Q925.2188,342.4375 927.0938,342.4375 Q927.9844,342.4375 928.6563,342.625 Q929.3281,342.7969 930.0156,343.1406 L929.2031,345.1563 Q928.5781,344.8438 928.0313,344.7188 Q927.5,344.5938 927.0156,344.5938 Q925.8438,344.5938 925.1406,345.125 Q924.4375,345.6563 924.1406,346.6094 Q923.8438,347.5625 923.8438,348.8281 Q923.8438,350.8438 924.5625,351.8125 Q925.2813,352.7656 926.875,352.7656 Q927.4688,352.7656 928.0938,352.6094 Q928.7188,352.4531 929.5469,352.0781 L929.5469,354.2969 Q928.8125,354.6094 928.0156,354.7656 Q927.2344,354.9219 926.4688,354.9219 Z "/><text fill="#000000" font-family="sans-serif" font-size="12" lengthAdjust="spacingAndGlyphs" textLength="227" x="941" y="352.656">XmlServletWebServerApplicationContext</text><line style="stroke: #225C4D; stroke-width: 1.5;" x1="913" x2="1170" y1="364" y2="364"/><line style="stroke: #225C4D; stroke-width: 1.5;" x1="913" x2="1170" y1="372" y2="372"/><!--MD5=[6fb12de3a987450ffd7ab455fc624577]
class StaticWebApplicationContext--><rect fill="#DDEEE8" filter="url(#ftzlipgxvsbwp)" height="48" id="StaticWebApplicationContext" style="stroke: #225C4D; stroke-width: 1.5;" width="193" x="964" y="116"/><ellipse cx="979" cy="132" fill="#ADD1B2" rx="11" ry="11" style="stroke: #225C4D; stroke-width: 1.0;"/><path d="M978.4688,138.9219 Q976.7188,138.9219 975.5781,138.1875 Q974.4531,137.4375 973.8906,136.0938 Q973.3438,134.7344 973.3438,132.9375 Q973.3438,130.9063 974,129.4531 Q974.6563,128 975.9375,127.2188 Q977.2188,126.4375 979.0938,126.4375 Q979.9844,126.4375 980.6563,126.625 Q981.3281,126.7969 982.0156,127.1406 L981.2031,129.1563 Q980.5781,128.8438 980.0313,128.7188 Q979.5,128.5938 979.0156,128.5938 Q977.8438,128.5938 977.1406,129.125 Q976.4375,129.6563 976.1406,130.6094 Q975.8438,131.5625 975.8438,132.8281 Q975.8438,134.8438 976.5625,135.8125 Q977.2813,136.7656 978.875,136.7656 Q979.4688,136.7656 980.0938,136.6094 Q980.7188,136.4531 981.5469,136.0781 L981.5469,138.2969 Q980.8125,138.6094 980.0156,138.7656 Q979.2344,138.9219 978.4688,138.9219 Z "/><text fill="#000000" font-family="sans-serif" font-size="12" lengthAdjust="spacingAndGlyphs" textLength="161" x="993" y="136.656">StaticWebApplicationContext</text><line style="stroke: #225C4D; stroke-width: 1.5;" x1="965" x2="1156" y1="148" y2="148"/><line style="stroke: #225C4D; stroke-width: 1.5;" x1="965" x2="1156" y1="156" y2="156"/><!--MD5=[18817da13b5077a129740727b00cf8e2]
reverse link ApplicationContext to WebApplicationContext--><path d="M506.49,32 C511.41,32 516.32,32 521.23,32 " fill="none" id="ApplicationContext&lt;-WebApplicationContext" style="stroke: #225C4D; stroke-width: 1.0; stroke-dasharray: 7.0,7.0;"/><polygon fill="none" points="506.3,39,486.3,32,506.3,25,506.3,39" style="stroke: #225C4D; stroke-width: 1.0;"/><!--MD5=[8bda4f8c7848f93c6570054d6a6f26f9]
reverse link WebApplicationContext to ConfigurableWebApplicationContext--><path d="M697.67,32 C702.54,32 707.41,32 712.29,32 " fill="none" id="WebApplicationContext&lt;-ConfigurableWebApplicationContext" style="stroke: #225C4D; stroke-width: 1.0; stroke-dasharray: 7.0,7.0;"/><polygon fill="none" points="697.63,39,677.63,32,697.63,25,697.63,39" style="stroke: #225C4D; stroke-width: 1.0;"/><!--MD5=[005978582973c957011976d6815b2f4f]
reverse link ConfigurableWebApplicationContext to AbstractRefreshableWebApplicationContext--><path d="M735.76,62.27 C683.84,79.2 619.45,100.2 571.16,115.95 " fill="none" id="ConfigurableWebApplicationContext&lt;-AbstractRefreshableWebApplicationContext" style="stroke: #225C4D; stroke-width: 1.0; stroke-dasharray: 7.0,7.0;"/><polygon fill="none" points="733.8,55.55,754.98,56,738.14,68.86,733.8,55.55" style="stroke: #225C4D; stroke-width: 1.0;"/><!--MD5=[cd289f80267a6717baa335fddde84b49]
reverse link AbstractRefreshableWebApplicationContext to AnnotationConfigWebApplicationContext--><path d="M402.01,169.6 C343.32,186.65 269.81,208 214.86,223.95 " fill="none" id="AbstractRefreshableWebApplicationContext&lt;-AnnotationConfigWebApplicationContext" style="stroke: #225C4D; stroke-width: 1.0;"/><polygon fill="none" points="400.14,162.86,421.3,164,404.05,176.3,400.14,162.86" style="stroke: #225C4D; stroke-width: 1.0;"/><!--MD5=[262bcab9f5141f8c131bfbdf634edd68]
reverse link AbstractRefreshableWebApplicationContext to GroovyWebApplicationContext--><path d="M465.24,178.75 C451.24,193.74 435.58,210.51 423.28,223.68 " fill="none" id="AbstractRefreshableWebApplicationContext&lt;-GroovyWebApplicationContext" style="stroke: #225C4D; stroke-width: 1.0;"/><polygon fill="none" points="460.25,173.84,479.02,164,470.48,183.39,460.25,173.84" style="stroke: #225C4D; stroke-width: 1.0;"/><!--MD5=[71e6d52dc988aa15ab1465f198337783]
reverse link AbstractRefreshableWebApplicationContext to XmlWebApplicationContext--><path d="M544.15,176.87 C562.96,192.33 584.42,209.96 601.12,223.68 " fill="none" id="AbstractRefreshableWebApplicationContext&lt;-XmlWebApplicationContext" style="stroke: #225C4D; stroke-width: 1.0;"/><polygon fill="none" points="539.5,182.11,528.49,164,548.39,171.29,539.5,182.11" style="stroke: #225C4D; stroke-width: 1.0;"/><!--MD5=[a5554dc665f80976cc82b04d7a3fe27b]
reverse link ConfigurableWebApplicationContext to GenericWebApplicationContext--><path d="M825.5,76.02 C825.5,89.58 825.5,104.04 825.5,115.68 " fill="none" id="ConfigurableWebApplicationContext&lt;-GenericWebApplicationContext" style="stroke: #225C4D; stroke-width: 1.0; stroke-dasharray: 7.0,7.0;"/><polygon fill="none" points="818.5,76,825.5,56,832.5,76,818.5,76" style="stroke: #225C4D; stroke-width: 1.0;"/><!--MD5=[097fb82502b5e73f87c6269ee1642302]
reverse link GenericWebApplicationContext to ServletWebServerApplicationContext--><path d="M844.88,182.09 C851.54,196.2 858.75,211.48 864.5,223.68 " fill="none" id="GenericWebApplicationContext&lt;-ServletWebServerApplicationContext" style="stroke: #225C4D; stroke-width: 1.0;"/><polygon fill="none" points="838.55,185.08,836.35,164,851.21,179.1,838.55,185.08" style="stroke: #225C4D; stroke-width: 1.0;"/><!--MD5=[8055d90d486e2c49dabbee8a8c70e760]
reverse link ServletWebServerApplicationContext to AnnotationConfigServletWebServerApplicationContext--><path d="M822.54,282.81 C797.49,298.81 768.22,317.51 745.74,331.86 " fill="none" id="ServletWebServerApplicationContext&lt;-AnnotationConfigServletWebServerApplicationContext" style="stroke: #225C4D; stroke-width: 1.0;"/><polygon fill="none" points="818.86,276.86,839.48,272,826.39,288.66,818.86,276.86" style="stroke: #225C4D; stroke-width: 1.0;"/><!--MD5=[434c21df844756d3835e255599985187]
reverse link ServletWebServerApplicationContext to XmlServletWebServerApplicationContext--><path d="M928.46,282.81 C953.51,298.81 982.78,317.51 1005.26,331.86 " fill="none" id="ServletWebServerApplicationContext&lt;-XmlServletWebServerApplicationContext" style="stroke: #225C4D; stroke-width: 1.0;"/><polygon fill="none" points="924.61,288.66,911.52,272,932.14,276.86,924.61,288.66" style="stroke: #225C4D; stroke-width: 1.0;"/><!--MD5=[f2a4d70c4355320fb3d9fe426392120d]
reverse link ConfigurableWebApplicationContext to StaticWebApplicationContext--><path d="M894.87,64.29 C931.5,80.81 975.69,100.74 1009.2,115.86 " fill="none" id="ConfigurableWebApplicationContext&lt;-StaticWebApplicationContext" style="stroke: #225C4D; stroke-width: 1.0; stroke-dasharray: 7.0,7.0;"/><polygon fill="none" points="891.84,70.6,876.49,56,897.6,57.84,891.84,70.6" style="stroke: #225C4D; stroke-width: 1.0;"/><!--MD5=[ad94b3edecc919be4ce772664bdbb870]
@startuml
skinparam class {
 BackgroundColor #DDEEE8
 BorderColor #225C4D
 ArrowColor #225C4D
 }
interface ApplicationContext
interface WebApplicationContext
interface ConfigurableWebApplicationContext

ApplicationContext <|. WebApplicationContext
WebApplicationContext <|. ConfigurableWebApplicationContext
ConfigurableWebApplicationContext <|.. AbstractRefreshableWebApplicationContext
AbstractRefreshableWebApplicationContext <|- - AnnotationConfigWebApplicationContext
AbstractRefreshableWebApplicationContext <|- - GroovyWebApplicationContext
AbstractRefreshableWebApplicationContext <|- - XmlWebApplicationContext
ConfigurableWebApplicationContext <|.. GenericWebApplicationContext
GenericWebApplicationContext <|- - ServletWebServerApplicationContext
ServletWebServerApplicationContext <|- - AnnotationConfigServletWebServerApplicationContext
ServletWebServerApplicationContext <|- - XmlServletWebServerApplicationContext
ConfigurableWebApplicationContext <|.. StaticWebApplicationContext
@enduml

PlantUML version 1.2019.12(Sun Nov 03 11:24:54 CET 2019)
(APACHE source distribution)
Java Runtime: OpenJDK Runtime Environment
JVM: OpenJDK 64-Bit Server VM
Java Version: 17.0.9+9-Debian-1deb12u1
Operating System: Linux
Default Encoding: UTF-8
Language: de
Country: DE
--></g></svg>