<?xml version="1.0" encoding="UTF-8" standalone="no"?><svg xmlns="http://www.w3.org/2000/svg" xmlns:xlink="http://www.w3.org/1999/xlink" contentScriptType="application/ecmascript" contentStyleType="text/css" height="204px" preserveAspectRatio="none" style="width:212px;height:204px;" version="1.1" viewBox="0 0 212 204" width="212px" zoomAndPan="magnify"><defs><filter height="300%" id="f1str87ma9k83l" width="300%" x="-1" y="-1"><feGaussianBlur result="blurOut" stdDeviation="2.0"/><feColorMatrix in="blurOut" result="blurOut2" type="matrix" values="0 0 0 0 0 0 0 0 0 0 0 0 0 0 0 0 0 0 .4 0"/><feOffset dx="4.0" dy="4.0" in="blurOut2" result="blurOut3"/><feBlend in="SourceGraphic" in2="blurOut3" mode="normal"/></filter></defs><g><!--MD5=[bd5220611d0c28d928ccc89c278a01cf]
class ApplicationContext--><rect fill="#DDEEE8" filter="url(#f1str87ma9k83l)" height="62.9819" id="ApplicationContext" style="stroke: #225C4D; stroke-width: 1.5;" width="176" x="15.5" y="8"/><ellipse cx="49.85" cy="24" fill="#B4A7E5" rx="11" ry="11" style="stroke: #225C4D; stroke-width: 1.0;"/><path d="M45.8813,30.5 L45.8813,28.7969 L48.2406,28.5313 L48.2406,20.3281 L45.8813,20.0625 L45.8813,18.3594 L53.0219,18.3594 L53.0219,20.0625 L50.6,20.3281 L50.6,28.5313 L53.0219,28.7969 L53.0219,30.5 L45.8813,30.5 Z "/><text fill="#000000" font-family="sans-serif" font-size="12" font-style="italic" lengthAdjust="spacingAndGlyphs" textLength="101" x="68.15" y="28.656">ApplicationContext</text><line style="stroke: #225C4D; stroke-width: 1.5;" x1="16.5" x2="190.5" y1="40" y2="40"/><line style="stroke: #225C4D; stroke-width: 1.5;" x1="16.5" x2="190.5" y1="48" y2="48"/><text fill="#000000" font-family="sans-serif" font-size="11" lengthAdjust="spacingAndGlyphs" textLength="164" x="21.5" y="63.7589">getParent(): ApplicationContext</text><!--MD5=[25babdaaa420b6624a10302656c23378]
class WebApplicationContext--><rect fill="#DDEEE8" filter="url(#f1str87ma9k83l)" height="62.9819" id="WebApplicationContext" style="stroke: #225C4D; stroke-width: 1.5;" width="195" x="6" y="131"/><ellipse cx="38.55" cy="147" fill="#B4A7E5" rx="11" ry="11" style="stroke: #225C4D; stroke-width: 1.0;"/><path d="M34.5813,153.5 L34.5813,151.7969 L36.9406,151.5313 L36.9406,143.3281 L34.5813,143.0625 L34.5813,141.3594 L41.7219,141.3594 L41.7219,143.0625 L39.3,143.3281 L39.3,151.5313 L41.7219,151.7969 L41.7219,153.5 L34.5813,153.5 Z "/><text fill="#000000" font-family="sans-serif" font-size="12" font-style="italic" lengthAdjust="spacingAndGlyphs" textLength="124" x="56.45" y="151.656">WebApplicationContext</text><line style="stroke: #225C4D; stroke-width: 1.5;" x1="7" x2="200" y1="163" y2="163"/><line style="stroke: #225C4D; stroke-width: 1.5;" x1="7" x2="200" y1="171" y2="171"/><text fill="#000000" font-family="sans-serif" font-size="11" lengthAdjust="spacingAndGlyphs" textLength="183" x="12" y="186.7589">getServletContext(): ServletContext</text><!--MD5=[18817da13b5077a129740727b00cf8e2]
reverse link ApplicationContext to WebApplicationContext--><path d="M103.5,91.29 C103.5,104.79 103.5,118.94 103.5,130.98 " fill="none" id="ApplicationContext&lt;-WebApplicationContext" style="stroke: #225C4D; stroke-width: 1.0; stroke-dasharray: 7.0,7.0;"/><polygon fill="none" points="96.5,91.03,103.5,71.03,110.5,91.03,96.5,91.03" style="stroke: #225C4D; stroke-width: 1.0;"/><!--MD5=[91407074fa54d9116d3ad6fc14bd1cab]
@startuml
skinparam class {
 BackgroundColor #DDEEE8
 BorderColor #225C4D
 ArrowColor #225C4D
 }
interface ApplicationContext {
    getParent(): ApplicationContext
}

interface WebApplicationContext {
    getServletContext(): ServletContext
}

ApplicationContext <|.. WebApplicationContext
@enduml

PlantUML version 1.2019.12(Sun Nov 03 11:24:54 CET 2019)
(APACHE source distribution)
Java Runtime: OpenJDK Runtime Environment
JVM: OpenJDK 64-Bit Server VM
Java Version: 17.0.9+9-Debian-1deb12u1
Operating System: Linux
Default Encoding: UTF-8
Language: de
Country: DE
--></g></svg>